<svg width="120" height="120" viewBox="0 0 120 120" fill="none" xmlns="http://www.w3.org/2000/svg">
<path d="M120 60C120 93.1371 93.1371 120 60 120C26.8629 120 0 93.1371 0 60C0 26.8629 26.8629 0 60 0C93.1371 0 120 26.8629 120 60Z" fill="#EA4444"/>
<path d="M21.4069 14.0625H88.125V100.781H15.9952C14.1134 98.7518 12.3705 96.5925 10.7812 94.3172V25.6828C13.8023 21.3579 17.3784 17.4504 21.4069 14.0625Z" fill="#FFF5F5"/>
<path d="M15.39 94.3172C16.9793 96.5925 18.7223 98.7518 20.6039 100.781H15.9952C14.1134 98.7518 12.3705 96.5923 10.7812 94.3172V25.6828C13.8023 21.3579 17.3784 17.4506 21.4069 14.0625H26.0156C21.9872 17.4506 18.4111 21.3579 15.39 25.6828V94.3172Z" fill="#FFE7BF"/>
<path d="M17.8125 32.8125V30.2344C17.8125 29.9756 18.0223 29.7656 18.2812 29.7656H47.8125C48.0715 29.7656 48.2812 29.9756 48.2812 30.2344V32.8125C48.2812 33.0712 48.0715 33.2812 47.8125 33.2812H18.2812C18.0223 33.2812 17.8125 33.0712 17.8125 32.8125ZM18.2812 39.8438H39.1071C39.3661 39.8438 39.5759 39.6337 39.5759 39.375V36.7969C39.5759 36.5381 39.3661 36.3281 39.1071 36.3281H18.2812C18.0223 36.3281 17.8125 36.5381 17.8125 36.7969V39.375C17.8125 39.6337 18.0223 39.8438 18.2812 39.8438ZM80.625 50.8594H18.2812C18.0223 50.8594 17.8125 51.0694 17.8125 51.3281V53.9062C17.8125 54.165 18.0223 54.375 18.2812 54.375H80.625C80.884 54.375 81.0938 54.165 81.0938 53.9062V51.3281C81.0938 51.0694 80.884 50.8594 80.625 50.8594ZM18.2812 61.2499H71.25C71.509 61.2499 71.7188 61.0402 71.7188 60.7812V58.203C71.7188 57.9443 71.509 57.7343 71.25 57.7343H18.2812C18.0223 57.7343 17.8125 57.9443 17.8125 58.203V60.7812C17.8125 61.0402 18.0223 61.2499 18.2812 61.2499ZM80.625 64.6095H18.2812C18.0223 64.6095 17.8125 64.8195 17.8125 65.0782V67.6563C17.8125 67.9153 18.0223 68.1251 18.2812 68.1251H80.625C80.884 68.1251 81.0938 67.9153 81.0938 67.6563V65.0782C81.0938 64.8192 80.884 64.6095 80.625 64.6095ZM52.5 71.4844H18.2812C18.0223 71.4844 17.8125 71.6944 17.8125 71.9531V74.5312C17.8125 74.79 18.0223 75 18.2812 75H52.5C52.759 75 52.9688 74.79 52.9688 74.5312V71.9531C52.9688 71.6944 52.759 71.4844 52.5 71.4844Z" fill="#FFE1A8"/>
<path d="M88.125 11.7188V23.4375H12.4287C16.6857 17.9072 21.8829 13.1386 27.7847 9.375H85.7813C87.0757 9.375 88.125 10.4243 88.125 11.7188Z" fill="#90D2E3"/>
<path d="M41.4064 9.375V16.4062C41.4064 17.7007 40.3571 18.75 39.0627 18.75C37.7682 18.75 36.7189 17.7007 36.7189 16.4062V9.375C36.7189 8.08055 37.7682 7.03125 39.0627 7.03125C40.3569 7.03125 41.4064 8.08055 41.4064 9.375ZM49.2188 7.03125C47.9244 7.03125 46.8751 8.08055 46.8751 9.375V16.4062C46.8751 17.7007 47.9244 18.75 49.2188 18.75C50.5133 18.75 51.5626 17.7007 51.5626 16.4062V9.375C51.5626 8.08055 50.5133 7.03125 49.2188 7.03125ZM26.5625 10.1754V16.4062C26.5625 17.7007 27.6118 18.75 28.9063 18.75C30.2007 18.75 31.25 17.7007 31.25 16.4062V9.375C31.25 8.72508 30.9852 8.13727 30.5579 7.71258C29.1924 8.4832 27.8591 9.30352 26.5625 10.1754ZM59.375 7.03125C58.0806 7.03125 57.0313 8.08055 57.0313 9.375V16.4062C57.0313 17.7007 58.0806 18.75 59.375 18.75C60.6695 18.75 61.7188 17.7007 61.7188 16.4062V9.375C61.7188 8.08055 60.6695 7.03125 59.375 7.03125ZM79.6876 7.03125C78.3931 7.03125 77.3438 8.08055 77.3438 9.375V16.4062C77.3438 17.7007 78.3931 18.75 79.6876 18.75C80.9821 18.75 82.0313 17.7007 82.0313 16.4062V9.375C82.0313 8.08055 80.9821 7.03125 79.6876 7.03125ZM69.5314 7.03125C68.237 7.03125 67.1877 8.08055 67.1877 9.375V16.4062C67.1877 17.7007 68.237 18.75 69.5314 18.75C70.8259 18.75 71.8752 17.7007 71.8752 16.4062V9.375C71.8752 8.08055 70.8256 7.03125 69.5314 7.03125ZM17.0942 18.0647C17.5182 18.4882 18.1035 18.75 18.7501 18.75C20.0446 18.75 21.0938 17.7007 21.0938 16.4062V14.3273C19.7042 15.5123 18.3699 16.7595 17.0942 18.0647Z" fill="#0DB2D0"/>
<path d="M90.4688 111.562C80.1134 111.562 71.7188 103.168 71.7188 92.8125V74.0625C71.7188 63.7071 80.1134 55.3125 90.4688 55.3125C100.824 55.3125 109.219 63.7071 109.219 74.0625V92.8125C109.219 103.168 100.824 111.562 90.4688 111.562Z" fill="#C5D3DD"/>
<path d="M109.219 74.0625V92.8125C109.219 103.168 100.824 111.562 90.4688 111.562C89.8884 111.562 89.3156 111.532 88.7487 111.481C83.0604 108.261 79.2188 102.159 79.2188 95.1562V71.7188C79.2188 64.7161 83.0604 58.6141 88.7487 55.3943C89.3154 55.3427 89.8884 55.3125 90.4688 55.3125C100.824 55.3125 109.219 63.7071 109.219 74.0625Z" fill="#D9E7EC"/>
<path d="M90.4688 76.4062C88.5272 76.4062 86.9531 74.8322 86.9531 72.8906V68.2031C86.9531 66.2616 88.5272 64.6875 90.4688 64.6875C92.4103 64.6875 93.9844 66.2616 93.9844 68.2031V72.8906C93.9844 74.8322 92.4103 76.4062 90.4688 76.4062Z" fill="#9FACBA"/>
</svg>
