<svg width="120" height="120" viewBox="0 0 120 120" fill="none" xmlns="http://www.w3.org/2000/svg">
<g clip-path="url(#clip0)">
<path d="M60 0C93.1371 0 120 26.8629 120 60C120 93.1371 93.1371 120 60 120C26.8629 120 0 93.1371 0 60C0 26.8629 26.8629 0 60 0Z" fill="#90D2E3"/>
<path d="M92.2615 46.875V110.596C82.9451 116.549 71.8758 120 60 120C48.1242 120 37.0549 116.549 27.7385 110.596V46.8753V46.875V7.63599C27.7385 6.34153 28.7878 5.29224 30.0823 5.29224H35.3264H84.6738H89.918C91.2124 5.29224 92.2617 6.34153 92.2617 7.63599V46.875H92.2615Z" fill="#328093"/>
<path d="M35.3264 5.29224H38.9281C37.4175 5.29224 36.1931 6.51661 36.1931 8.02716V42.1875V115.087C33.2452 113.811 30.4186 112.309 27.7385 110.596V42.1875V9.40411V8.02716C27.7385 6.51661 28.9629 5.29224 30.4734 5.29224C30.4734 5.29224 35.3264 5.29224 35.3264 5.29224ZM67.1693 9.11583C65.8495 9.11583 64.7796 10.1858 64.7796 11.5055C64.7796 12.8253 65.8495 13.8952 67.1693 13.8952C68.4891 13.8952 69.559 12.8253 69.559 11.5055C69.559 10.1858 68.4891 9.11583 67.1693 9.11583ZM60.3417 9.11583H52.489C51.3579 9.11583 50.441 10.0327 50.441 11.1638V11.8475C50.441 12.9786 51.3579 13.8954 52.489 13.8954H60.3417C61.4728 13.8954 62.3897 12.9786 62.3897 11.8475V11.1638C62.3897 10.0327 61.4728 9.11583 60.3417 9.11583Z" fill="#174550"/>
<path d="M87.7211 14.805V103.41C87.7211 107.293 84.573 110.441 80.6899 110.441H34.6226C33.3281 110.441 32.2788 109.391 32.2788 108.097V14.805C32.2788 13.5105 33.3281 12.4612 34.6226 12.4612H44.2275V14.8971C44.2275 16.1916 45.2768 17.2409 46.5712 17.2409H73.4285C74.7229 17.2409 75.7722 16.1916 75.7722 14.8971V12.4612H85.3772C86.6716 12.4612 87.7211 13.5108 87.7211 14.805Z" fill="#C5D3DD"/>
<path d="M87.7212 14.805V103.41C87.7212 107.293 84.5731 110.441 80.69 110.441H74.1924C78.0755 110.441 81.2236 107.293 81.2236 103.41V14.805C81.2236 13.5105 80.1743 12.4612 78.8799 12.4612H85.3775C86.6717 12.4612 87.7212 13.5108 87.7212 14.805Z" fill="#B6C4CF"/>
<path d="M65.625 29.7656V32.3438C65.625 32.6025 65.415 32.8125 65.1562 32.8125H38.2031C37.9441 32.8125 37.7344 32.6025 37.7344 32.3438V29.7656C37.7344 29.5069 37.9441 29.2969 38.2031 29.2969H65.1562C65.4152 29.2969 65.625 29.5069 65.625 29.7656ZM81.7969 23.4375H38.2031C37.9441 23.4375 37.7344 23.6475 37.7344 23.9062V26.4844C37.7344 26.7431 37.9441 26.9531 38.2031 26.9531H81.7969C82.0559 26.9531 82.2656 26.7431 82.2656 26.4844V23.9062C82.2656 23.6475 82.0559 23.4375 81.7969 23.4375Z" fill="#8D9CA8"/>
<path d="M73.6587 82.316V103.41C73.6587 106.8 76.0582 109.629 79.2513 110.293C78.7868 110.39 78.3059 110.441 77.8127 110.441H26.25C22.3666 110.441 19.2188 107.293 19.2188 103.41V82.316H73.6587Z" fill="#FFF5F5"/>
<path d="M33.7177 110.441H26.25C22.3666 110.441 19.2188 107.293 19.2188 103.41V82.316H26.6864V103.41C26.6864 107.293 29.8343 110.441 33.7177 110.441Z" fill="#FFE7BF"/>
<path d="M44.7656 53.163V73.3193C44.7656 73.578 44.5559 73.788 44.2969 73.788H38.2031C37.9441 73.788 37.7344 73.578 37.7344 73.3193V53.163C37.7344 52.9043 37.9441 52.6943 38.2031 52.6943H44.2969C44.5559 52.6943 44.7656 52.9043 44.7656 53.163ZM69.297 42.1875H63.2032C62.9445 42.1875 62.7345 42.3975 62.7345 42.6562V73.3193C62.7345 73.578 62.9445 73.788 63.2032 73.788H69.297C69.5559 73.788 69.7657 73.578 69.7657 73.3193V42.6562C69.7657 42.3975 69.5557 42.1875 69.297 42.1875ZM81.7969 37.5H75.7031C75.4441 37.5 75.2344 37.71 75.2344 37.9687V73.3193C75.2344 73.578 75.4441 73.788 75.7031 73.788H81.7969C82.0559 73.788 82.2656 73.578 82.2656 73.3193V37.9687C82.2656 37.71 82.0559 37.5 81.7969 37.5ZM56.7968 46.875H50.703C50.4441 46.875 50.2343 47.085 50.2343 47.3437V73.3193C50.2343 73.578 50.4441 73.788 50.703 73.788H56.7968C57.0555 73.788 57.2655 73.578 57.2655 73.3193V47.3437C57.2655 47.085 57.0558 46.875 56.7968 46.875Z" fill="#9FACBA"/>
<path d="M60.8573 76.657L35.0768 102.423C34.6191 102.88 33.8773 102.88 33.4198 102.423L24.1237 93.1266C23.2087 92.2116 23.2087 90.7277 24.1237 89.8127L24.1245 89.812C25.0395 88.897 26.5233 88.897 27.4383 89.812L34.2565 96.6302L57.544 73.3427C58.459 72.4277 59.9428 72.4277 60.8578 73.3427C61.7733 74.258 61.773 75.742 60.8573 76.657Z" fill="#EA4444"/>
</g>
<defs>
<clipPath id="clip0">
<rect width="120" height="120" fill="white"/>
</clipPath>
</defs>
</svg>
