<svg width="440" height="440" viewBox="0 0 440 440" fill="none" xmlns="http://www.w3.org/2000/svg">
<g opacity="0.15">
<path d="M282.6 316.879C277.974 314.099 273.226 311.304 268.478 308.565C269.594 299.051 269.597 289.428 268.483 279.934C273.249 277.184 277.994 274.391 282.598 271.623C290.35 266.965 293.581 257.137 290.112 248.761C290.112 248.761 290.112 248.761 290.112 248.76L279.996 224.338C276.527 215.965 267.297 211.297 258.518 213.484C253.3 214.783 247.97 216.164 242.658 217.589C236.727 210.085 229.922 203.281 222.408 197.347C223.833 192.035 225.215 186.701 226.515 181.482C228.702 172.707 224.035 163.474 215.662 160.005L191.24 149.889C182.866 146.419 173.036 149.648 168.376 157.401C165.601 162.019 162.806 166.767 160.063 171.523C150.552 170.407 140.93 170.404 131.432 171.517C128.68 166.747 125.886 162 123.122 157.401C118.46 149.649 108.633 146.42 100.258 149.889L75.8365 160.005C67.4645 163.473 62.7963 172.707 64.9834 181.482C66.2854 186.712 67.6656 192.043 69.0878 197.342C61.5846 203.271 54.7801 210.078 48.847 217.591C43.5223 216.162 38.1891 214.782 32.9804 213.484C24.2028 211.296 14.9714 215.966 11.5021 224.339L1.38816 248.76C-2.0794 257.135 1.15098 266.963 8.9008 271.621C13.5199 274.397 18.268 277.191 23.0229 279.935C21.9074 289.445 21.9048 299.067 23.0177 308.566C18.2585 311.312 13.5131 314.106 8.89908 316.878C1.14926 321.537 -2.08112 331.365 1.38731 339.74L11.5038 364.162C14.9723 372.535 24.2011 377.204 32.9821 375.016C38.1934 373.718 43.5249 372.338 48.8401 370.911C54.7707 378.414 61.576 385.217 69.0895 391.152C67.663 396.471 66.282 401.804 64.9834 407.017C62.7963 415.792 67.4627 425.026 75.8365 428.494L100.259 438.611C102.528 439.55 104.902 439.999 107.252 439.999C113.578 439.999 119.725 436.751 123.125 431.1C125.879 426.517 128.673 421.771 131.439 416.979C140.948 418.093 150.572 418.095 160.07 416.984C162.802 421.721 165.595 426.466 168.38 431.101C173.039 438.852 182.867 442.081 191.243 438.613L215.665 428.497C224.037 425.028 228.705 415.794 226.518 407.019C225.226 401.835 223.846 396.503 222.414 391.16C229.915 385.231 236.72 378.425 242.655 370.911C247.965 372.335 253.298 373.715 258.519 375.016C267.294 377.205 276.528 372.538 279.998 364.163L290.113 339.74C293.58 331.365 290.35 321.537 282.6 316.879ZM262.209 355.638C257.192 354.381 252.079 353.053 246.995 351.683C239.797 349.747 232.201 352.277 227.643 358.134C222.404 364.863 216.341 370.927 209.624 376.158C203.774 380.714 201.246 388.307 203.184 395.501C204.562 400.618 205.89 405.728 207.138 410.709L184.69 420.006C182.02 415.551 179.346 410.999 176.733 406.458C173.014 400.001 165.857 396.423 158.5 397.333C150.052 398.383 141.476 398.382 133.017 397.329C125.639 396.413 118.488 399.992 114.77 406.451C112.125 411.043 109.451 415.598 106.81 420.005L84.3614 410.707C85.617 405.699 86.9456 400.587 88.3171 395.495C90.255 388.298 87.7225 380.701 81.8658 376.142C75.1369 370.904 69.0741 364.842 63.8422 358.125C59.2875 352.274 51.6941 349.747 44.4977 351.684C39.4077 353.055 34.297 354.384 29.2911 355.638L19.9927 333.191C24.4271 330.532 28.9809 327.858 33.5407 325.233C39.9989 321.514 43.5808 314.359 42.6664 307.001C41.6154 298.552 41.618 289.977 42.669 281.517C43.5868 274.152 40.0075 266.989 33.5459 263.27C28.9878 260.645 24.4331 257.971 19.9919 255.308L29.2903 232.86C34.2918 234.114 39.4034 235.442 44.5029 236.815C51.6976 238.753 59.2944 236.22 63.856 230.363C69.0938 223.635 75.1567 217.571 81.8727 212.341C87.7233 207.785 90.2507 200.191 88.3128 192.994C86.9464 187.921 85.6178 182.811 84.3589 177.789L106.807 168.491C109.458 172.914 112.132 177.466 114.764 182.039C118.484 188.497 125.647 192.084 132.997 191.164C141.442 190.113 150.016 190.113 158.483 191.168C165.852 192.086 173.011 188.503 176.729 182.044C179.352 177.486 182.027 172.932 184.688 168.491L207.137 177.789C205.88 182.801 204.552 187.914 203.181 193.002C201.243 200.199 203.776 207.795 209.632 212.354C216.36 217.592 222.424 223.654 227.656 230.371C232.21 236.221 239.801 238.748 247.001 236.811C252.088 235.441 257.198 234.113 262.207 232.857L271.504 255.305C267.076 257.96 262.523 260.633 257.956 263.263C251.498 266.981 247.916 274.137 248.831 281.495C249.882 289.94 249.88 298.516 248.826 306.982C247.91 314.347 251.491 321.508 257.95 325.227C262.502 327.847 267.056 330.522 271.504 333.187L262.209 355.638Z" fill="white"/>
<path d="M207.764 268.563C207.764 268.563 207.764 268.563 207.763 268.563C193.601 234.369 154.262 218.073 120.063 232.236C85.8706 246.4 69.5734 285.742 83.7376 319.936C90.598 336.501 103.501 349.401 120.064 356.263C128.346 359.693 137.048 361.408 145.75 361.408C154.452 361.408 163.154 359.693 171.437 356.263C205.63 342.099 221.926 302.758 207.764 268.563ZM163.9 338.067C152.197 342.915 139.307 342.914 127.601 338.067C115.898 333.219 106.783 324.103 101.934 312.399C91.9248 288.239 103.44 260.44 127.602 250.432C133.518 247.981 139.651 246.821 145.689 246.821C164.309 246.821 182.01 257.856 189.568 276.1C199.576 300.261 188.06 328.059 163.9 338.067Z" fill="white"/>
<path d="M426.725 86.7416C423.325 86.2329 419.833 85.7387 416.317 85.2695C414.545 79.3768 412.178 73.6637 409.258 68.2376C411.41 65.4232 413.531 62.6036 415.58 59.8338C420.131 53.6798 419.472 44.9521 414.05 39.5329L400.466 25.9496C395.044 20.527 386.316 19.8696 380.164 24.4216C377.384 26.4781 374.566 28.5982 371.76 30.7423C366.335 27.8222 360.622 25.4555 354.728 23.6826C354.258 20.166 353.766 16.6744 353.257 13.2756C352.125 5.70795 345.489 0 337.822 0H318.609C310.942 0 304.306 5.70795 303.174 13.2747C302.666 16.6718 302.173 20.1643 301.703 23.6817C295.809 25.4546 290.095 27.8213 284.671 30.7415C281.867 28.5965 279.047 26.4755 276.268 24.4208C270.114 19.8687 261.386 20.5261 255.966 25.9479L242.383 39.5303C236.96 44.9512 236.301 53.6798 240.853 59.8347C242.901 62.6036 245.022 65.424 247.173 68.2376C244.255 73.6628 241.887 79.3751 240.114 85.2695C236.599 85.7396 233.106 86.2329 229.707 86.7416C222.139 87.8743 216.431 94.5095 216.431 102.178V121.389C216.431 129.056 222.137 135.692 229.706 136.825C233.105 137.334 236.597 137.828 240.113 138.297C241.886 144.191 244.253 149.903 247.172 155.329C245.023 158.141 242.902 160.96 240.85 163.733C236.3 169.885 236.958 178.615 242.38 184.033L255.965 197.618C261.386 203.04 270.113 203.697 276.266 199.146C279.046 197.091 281.864 194.969 284.669 192.826C290.096 195.746 295.809 198.113 301.702 199.885C302.17 203.401 302.665 206.893 303.173 210.293C304.306 217.86 310.942 223.568 318.609 223.568H337.822C345.489 223.568 352.125 217.862 353.257 210.292C353.765 206.892 354.258 203.401 354.728 199.884C360.622 198.113 366.334 195.744 371.76 192.824C374.564 194.969 377.385 197.09 380.163 199.146C386.315 203.698 395.045 203.04 400.465 197.619L414.05 184.035C419.471 178.615 420.13 169.886 415.578 163.732C413.527 160.96 411.406 158.139 409.258 155.33C412.176 149.905 414.544 144.193 416.317 138.298C419.832 137.828 423.325 137.335 426.724 136.826C434.292 135.693 440 129.058 440 121.39V102.179C439.999 94.5104 434.292 87.8743 426.725 86.7416ZM421.289 118.715C418.202 119.163 415.053 119.598 411.893 120.01C405.642 120.825 400.526 125.261 398.86 131.31C397.264 137.101 394.948 142.689 391.978 147.919C388.874 153.379 389.353 160.135 393.197 165.134C395.135 167.654 397.057 170.19 398.928 172.696L389.128 182.497C386.614 180.621 384.078 178.7 381.564 176.766C376.567 172.92 369.809 172.445 364.349 175.545C359.118 178.517 353.529 180.833 347.741 182.428C341.69 184.096 337.254 189.212 336.441 195.461C336.029 198.621 335.595 201.771 335.146 204.858H321.285C320.837 201.771 320.403 198.622 319.99 195.464C319.175 189.213 314.74 184.096 308.69 182.429C302.9 180.834 297.313 178.518 292.081 175.547C286.62 172.444 279.862 172.921 274.867 176.766C272.351 178.701 269.817 180.621 267.301 182.497L257.501 172.696C259.372 170.188 261.294 167.653 263.234 165.131C267.075 160.134 267.554 153.377 264.452 147.918C261.481 142.688 259.165 137.098 257.569 131.309C255.903 125.259 250.787 120.823 244.537 120.008C241.377 119.595 238.226 119.162 235.139 118.713V104.853C238.226 104.405 241.376 103.97 244.536 103.559C250.786 102.743 255.903 98.3071 257.568 92.2588C259.164 86.4683 261.479 80.8798 264.451 75.6488C267.554 70.1892 267.075 63.432 263.233 58.4348C261.292 55.9116 259.37 53.3765 257.501 50.8723L267.301 41.0711C269.815 42.9471 272.35 44.8687 274.864 46.8014C279.859 50.6471 286.616 51.1266 292.081 48.0235C297.31 45.0526 302.899 42.7366 308.688 41.1399C314.74 39.4727 319.176 34.356 319.989 28.1075C320.401 24.9476 320.836 21.798 321.284 18.7111H335.145C335.593 21.7971 336.027 24.9467 336.439 28.1049C337.254 34.356 341.69 39.4727 347.74 41.139C353.53 42.7349 359.119 45.0517 364.35 48.0226C369.811 51.1258 376.568 50.6437 381.563 46.8023C384.078 44.8687 386.612 42.9471 389.128 41.0711L398.928 50.8723C397.059 53.3773 395.137 55.9134 393.196 58.4373C389.354 63.4337 388.876 70.1901 391.977 75.6497C394.947 80.8816 397.264 86.4709 398.859 92.2597C400.526 98.3096 405.642 102.745 411.892 103.56C415.052 103.973 418.202 104.407 421.289 104.855V118.715Z" fill="white"/>
<path d="M328.215 71.908C306.228 71.908 288.34 89.7959 288.34 111.784C288.34 133.773 306.228 151.66 328.215 151.66C350.203 151.66 368.091 133.773 368.091 111.784C368.091 89.7959 350.203 71.908 328.215 71.908ZM328.215 133.934C316.003 133.934 306.065 123.997 306.065 111.783C306.065 99.5686 316.002 89.6326 328.215 89.6326C340.429 89.6326 350.365 99.5695 350.366 111.783C350.366 123.997 340.429 133.934 328.215 133.934Z" fill="white"/>
</g>
</svg>
