<svg width="150" height="150" viewBox="0 0 150 150" fill="none" xmlns="http://www.w3.org/2000/svg">
<g opacity="0.15">
<path d="M96.3409 41.9731C94.7638 42.9209 93.1452 43.8736 91.5265 44.8076C91.9071 48.0507 91.908 51.3314 91.5283 54.5681C93.1531 55.5056 94.7709 56.4577 96.3403 57.4014C98.9829 58.9893 100.084 62.3397 98.902 65.1952C98.902 65.1952 98.902 65.1952 98.9017 65.1955L95.4532 73.5211C94.2705 76.3758 91.124 77.9669 88.131 77.2213C86.3524 76.7786 84.5352 76.3078 82.7243 75.822C80.7025 78.3802 78.3825 80.6997 75.8211 82.7226C76.3069 84.5337 76.7779 86.3519 77.2209 88.1311C77.9665 91.1226 76.3757 94.2702 73.521 95.453L65.1954 98.9015C62.3408 100.084 58.9895 98.9838 57.401 96.3407C56.455 94.7662 55.502 93.1476 54.5669 91.5263C51.3246 91.9069 48.0445 91.9078 44.8063 91.5284C43.8683 93.1546 42.9158 94.7727 41.9733 96.3407C40.3843 98.9832 37.0339 100.084 34.1789 98.9015L25.8534 95.453C22.9993 94.2705 21.4079 91.1226 22.1535 88.1311C22.5973 86.3484 23.0678 84.5308 23.5527 82.7244C20.9948 80.7032 18.675 78.3826 16.6524 75.8212C14.8372 76.3084 13.019 76.7789 11.2433 77.2213C8.25095 77.9675 5.10389 76.3752 3.92118 73.5208L0.473235 65.1955C-0.708891 62.3405 0.392376 58.9899 3.03436 57.402C4.60906 56.4557 6.22771 55.503 7.84871 54.5675C7.46843 51.3255 7.46755 48.0455 7.84695 44.807C6.22449 43.871 4.60672 42.9185 3.03377 41.9734C0.391788 40.3852 -0.709479 37.0348 0.47294 34.1796L3.92176 25.854C5.10418 22.9996 8.25036 21.4079 11.2439 22.1538C13.0205 22.5962 14.838 23.0667 16.6501 23.553C18.6718 20.9951 20.9918 18.676 23.5533 16.6528C23.0669 14.8396 22.5961 13.0214 22.1535 11.2443C21.4078 8.25278 22.9987 5.10483 25.8533 3.92241L34.1792 0.473592C34.9526 0.153378 35.7621 0.000454637 36.5631 0.000454567C38.7199 0.000454379 40.8152 1.10758 41.9745 3.03414C42.9135 4.59654 43.8659 6.2146 44.8087 7.84819C48.0504 7.4682 51.3313 7.46762 54.5692 7.84643C55.5005 6.23159 56.453 4.61382 57.4022 3.03385C58.9907 0.391268 62.3411 -0.709409 65.1966 0.473009L73.5222 3.92153C76.3763 5.10395 77.9677 8.25189 77.2221 11.2434C76.7817 13.0109 76.3112 14.8284 75.8229 16.6501C78.3802 18.6713 80.7002 20.9916 82.7234 23.553C84.5334 23.0676 86.3515 22.5971 88.1316 22.1535C91.1231 21.4073 94.2711 22.9984 95.4538 25.8537L98.9023 34.1796C100.084 37.0345 98.9829 40.3852 96.3409 41.9731ZM89.3893 28.7599C87.6793 29.1883 85.9361 29.6412 84.2029 30.1082C81.749 30.7682 79.1595 29.9054 77.6056 27.9089C75.8196 25.6149 73.7527 23.5478 71.4626 21.7645C69.4684 20.2111 68.6068 17.6225 69.2674 15.17C69.737 13.4257 70.1897 11.6837 70.6153 9.98568L62.9624 6.81607C62.0522 8.33481 61.1408 9.88665 60.2498 11.4347C58.9822 13.6361 56.5423 14.856 54.0342 14.5454C51.1541 14.1877 48.2305 14.188 45.3466 14.5469C42.8314 14.8592 40.3936 13.6393 39.1263 11.4373C38.2245 9.87172 37.3128 8.31899 36.4125 6.81636L28.7596 9.98626C29.1876 11.6934 29.6405 13.4363 30.1081 15.1721C30.7688 17.6257 29.9054 20.2155 27.9088 21.7697C25.6149 23.5554 23.548 25.622 21.7644 27.9118C20.2117 29.9066 17.623 30.768 15.1697 30.1076C13.4344 29.6403 11.6922 29.1874 9.98561 28.7597L6.8157 36.4123C8.32741 37.3187 9.87985 38.2301 11.4343 39.1252C13.636 40.3928 14.8571 42.8321 14.5454 45.3405C14.1871 48.2209 14.1879 51.1442 14.5462 54.0284C14.8591 56.5392 13.6389 58.9811 11.4361 60.249C9.8822 61.1438 8.32947 62.0555 6.81541 62.9634L9.98532 70.616C11.6904 70.1886 13.433 69.7356 15.1714 69.2678C17.6242 68.6068 20.214 69.4705 21.7691 71.4671C23.5547 73.761 25.6216 75.8282 27.9112 77.6112C29.9057 79.1642 30.7673 81.7532 30.1067 84.2065C29.6408 85.9362 29.1879 87.6782 28.7587 89.3903L36.4116 92.5599C37.3151 91.0523 38.2269 89.5001 39.1242 87.9413C40.3922 85.7396 42.8341 84.5168 45.3398 84.8305C48.2188 85.1888 51.1418 85.1888 54.0284 84.8291C56.5406 84.5162 58.981 85.7378 60.2484 87.9395C61.1428 89.4934 62.0548 91.0461 62.9619 92.5599L70.6148 89.3903C70.1865 87.6814 69.7335 85.9385 69.2662 84.2039C68.6056 81.7505 69.469 79.1607 71.4656 77.6065C73.7592 75.8209 75.8264 73.7543 77.61 71.4644C79.1627 69.4702 81.7505 68.6086 84.205 69.2689C85.9391 69.7359 87.6811 70.1889 89.3888 70.6169L92.5584 62.9643C91.0487 62.0593 89.4966 61.1479 87.9397 60.2514C85.7381 58.9837 84.5167 56.5442 84.8287 54.0358C85.187 51.1568 85.1864 48.2332 84.8272 45.3472C84.5149 42.8362 85.7357 40.3949 87.9377 39.1272C89.4892 38.234 91.042 37.3222 92.5584 36.4135L89.3893 28.7599Z" fill="white"/>
<path d="M70.8285 58.4443C70.8285 58.4443 70.8285 58.4443 70.8282 58.4446C66.0001 70.1015 52.5892 75.6571 40.9305 70.8286C29.2739 65.9999 23.7181 52.5879 28.5468 40.931C30.8855 35.2837 35.2842 30.886 40.9308 28.5466C43.7542 27.3774 46.7208 26.7926 49.6874 26.7926C52.654 26.7926 55.6205 27.3774 58.4445 28.5466C70.1011 33.3753 75.6566 46.7871 70.8285 58.4443ZM55.8748 34.7499C51.8852 33.0973 47.491 33.0976 43.5002 34.7499C39.5105 36.4026 36.403 39.5104 34.7501 43.5003C31.3379 51.7368 35.2637 61.2137 43.5005 64.6253C45.5175 65.4609 47.6082 65.8564 49.6666 65.8564C56.0143 65.8564 62.0489 62.0947 64.6255 55.875C68.0371 47.6385 64.1113 38.1618 55.8748 34.7499Z" fill="white"/>
<path d="M145.474 120.429C144.315 120.602 143.125 120.771 141.926 120.931C141.322 122.94 140.515 124.887 139.52 126.737C140.253 127.697 140.976 128.658 141.675 129.602C143.226 131.7 143.002 134.675 141.154 136.523L136.522 141.154C134.674 143.002 131.699 143.226 129.601 141.674C128.654 140.973 127.693 140.251 126.736 139.52C124.887 140.515 122.939 141.322 120.93 141.926C120.77 143.125 120.602 144.316 120.428 145.474C120.043 148.054 117.78 150 115.166 150L108.617 150C106.003 150 103.741 148.054 103.355 145.475C103.182 144.316 103.014 143.126 102.853 141.927C100.844 141.322 98.8961 140.515 97.0469 139.52C96.091 140.251 95.1294 140.974 94.1823 141.675C92.0843 143.227 89.1089 143.002 87.2612 141.154L82.6305 136.524C80.7819 134.676 80.5572 131.7 82.1091 129.602C82.8072 128.658 83.5302 127.696 84.2635 126.737C83.2686 124.888 82.4615 122.94 81.8571 120.931C80.6586 120.771 79.4679 120.602 78.3093 120.429C75.7291 120.043 73.7832 117.781 73.7832 115.167L73.7832 108.617C73.7832 106.004 75.7285 103.741 78.3087 103.355C79.4677 103.182 80.658 103.013 81.8568 102.853C82.4612 100.844 83.268 98.8967 84.2632 97.0469C83.5305 96.0883 82.8075 95.1274 82.1079 94.182C80.5569 92.0846 80.781 89.1086 82.6294 87.2615L87.2606 82.6302C89.1087 80.7816 92.084 80.5578 94.1817 82.1093C95.1291 82.8098 96.0901 83.5332 97.0463 84.2638C98.8964 83.2683 100.844 82.4615 102.853 81.8574C103.013 80.6588 103.181 79.4682 103.355 78.3092C103.741 75.7294 106.003 73.7835 108.617 73.7835L115.166 73.7835C117.78 73.7835 120.043 75.7288 120.428 78.3095C120.602 79.4685 120.77 80.6588 120.93 81.8577C122.939 82.4615 124.886 83.2689 126.736 84.2644C127.692 83.5332 128.654 82.8101 129.601 82.1093C131.698 80.5575 134.674 80.7816 136.522 82.6299L141.153 87.2606C143.002 89.1086 143.226 92.0843 141.674 94.1823C140.975 95.1274 140.252 96.0889 139.52 97.0466C140.515 98.8961 141.322 100.843 141.926 102.853C143.125 103.013 144.315 103.181 145.474 103.355C148.054 103.741 150 106.003 150 108.617L150 115.166C150 117.781 148.054 120.043 145.474 120.429ZM143.621 109.529C142.569 109.376 141.495 109.228 140.418 109.088C138.287 108.81 136.543 107.297 135.975 105.235C135.431 103.261 134.641 101.356 133.629 99.5729C132.571 97.7116 132.734 95.4083 134.044 93.7041C134.705 92.8451 135.36 91.9806 135.998 91.1263L132.657 87.785C131.8 88.4246 130.936 89.0796 130.078 89.7388C128.375 91.0498 126.071 91.2119 124.21 90.1551C122.426 89.142 120.521 88.3525 118.548 87.8084C116.485 87.2401 114.973 85.4958 114.696 83.3656C114.555 82.2883 114.407 81.2143 114.254 80.162L109.529 80.162C109.376 81.2143 109.228 82.288 109.088 83.3644C108.81 85.4955 107.298 87.2398 105.235 87.8082C103.261 88.3519 101.357 89.1415 99.5729 90.1545C97.7114 91.2121 95.4075 91.0496 93.7044 89.7388C92.8469 89.0793 91.983 88.4246 91.1254 87.785L87.7844 91.1263C88.4222 91.9815 89.0773 92.8454 89.7388 93.7053C91.0484 95.4089 91.2116 97.7122 90.154 99.5735C89.1412 101.356 88.3516 103.262 87.8076 105.236C87.2395 107.298 85.4955 108.81 83.3647 109.088C82.2875 109.229 81.2135 109.376 80.1611 109.53L80.1611 114.255C81.2135 114.407 82.2872 114.556 83.3644 114.696C85.4952 114.974 87.2395 116.486 87.8073 118.548C88.3513 120.522 89.1406 122.427 90.1537 124.211C91.2116 126.072 91.0484 128.375 89.7385 130.079C89.0767 130.939 88.4216 131.803 87.7844 132.657L91.1254 135.998C91.9824 135.359 92.8466 134.704 93.7036 134.045C95.4063 132.734 97.7099 132.57 99.5729 133.628C101.356 134.641 103.261 135.431 105.234 135.975C107.298 136.543 108.81 138.288 109.087 140.418C109.228 141.495 109.376 142.569 109.529 143.621L114.254 143.621C114.407 142.569 114.555 141.495 114.695 140.419C114.973 138.288 116.485 136.543 118.548 135.975C120.522 135.431 122.427 134.641 124.21 133.629C126.072 132.571 128.375 132.735 130.078 134.045C130.936 134.704 131.8 135.359 132.657 135.998L135.998 132.657C135.361 131.803 134.706 130.939 134.044 130.078C132.734 128.375 132.571 126.072 133.628 124.21C134.641 122.427 135.431 120.521 135.975 118.548C136.543 116.485 138.287 114.973 140.418 114.695C141.495 114.555 142.569 114.407 143.621 114.254L143.621 109.529Z" fill="white"/>
<path d="M111.892 125.486C104.396 125.486 98.2979 119.388 98.2979 111.892C98.2978 104.396 104.396 98.2976 111.892 98.2976C119.388 98.2976 125.486 104.396 125.486 111.892C125.486 119.388 119.388 125.486 111.892 125.486ZM111.892 104.341C107.728 104.341 104.341 107.728 104.341 111.892C104.341 116.056 107.728 119.443 111.892 119.443C116.056 119.443 119.443 116.056 119.443 111.892C119.443 107.728 116.056 104.341 111.892 104.341Z" fill="white"/>
</g>
</svg>
