<svg width="120" height="120" viewBox="0 0 120 120" fill="none" xmlns="http://www.w3.org/2000/svg">
<g clip-path="url(#clip0)">
<path d="M120 60C120 93.1371 93.1371 120 60 120C26.8629 120 0 93.1371 0 60C0 26.8629 26.8629 0 60 0C93.1371 0 120 26.8629 120 60Z" fill="#9AE7FD"/>
<path d="M108.516 71.4844C108.516 85.1248 103.961 97.6997 96.2934 107.778C86.2153 115.445 73.6404 120 60 120C26.8629 120 0 93.1371 0 60C0 46.3596 4.55484 33.7847 12.2222 23.7066C22.3003 16.0392 34.8752 11.4844 48.5156 11.4844C60.112 11.4844 70.9376 14.7776 80.115 20.475C80.5561 20.1687 81.0909 19.988 81.6687 19.988C83.1755 19.988 84.397 21.2095 84.397 22.7163C84.397 22.9305 84.3698 23.138 84.3232 23.3379C99.0054 34.275 108.516 51.7685 108.516 71.4844Z" fill="#4391A6"/>
<path d="M63.143 119.916C62.1019 119.97 61.0547 120 60 120C26.8629 120 0 93.1371 0 60C0 46.3596 4.55484 33.7847 12.2222 23.7066C22.3003 16.0392 34.8752 11.4844 48.5156 11.4844C49.5841 11.4844 50.6459 11.5134 51.7008 11.5685C51.5766 11.5748 51.4523 11.5816 51.3284 11.5889C27.4263 12.9712 8.13516 31.8956 6.47438 55.7796C6.37734 57.1739 6.32812 58.5811 6.32812 60C6.32812 92.0686 31.4869 118.26 63.143 119.916Z" fill="#328093"/>
<path d="M99.1406 90C99.1406 91.9416 97.5666 93.5156 95.625 93.5156H83.9062C81.9647 93.5156 80.3906 91.9416 80.3906 90C80.3906 88.0584 81.9647 86.4844 83.9062 86.4844H95.625C97.5666 86.4844 99.1406 88.0584 99.1406 90ZM20.625 65.3906H17.1094C14.5205 65.3906 12.4219 63.292 12.4219 60.7031V57.1875C12.4219 52.657 8.74922 48.9844 4.21875 48.9844H1.01273C0.349922 52.5555 0 56.2366 0 60C0 77.5798 7.56094 93.3933 19.6078 104.367C22.2952 103.02 24.1406 100.242 24.1406 97.0312C24.1406 92.5008 20.468 88.8281 15.9375 88.8281H14.7656C12.8241 88.8281 11.25 87.2541 11.25 85.3125C11.25 83.3709 12.8241 81.7969 14.7656 81.7969H20.625C25.1555 81.7969 28.8281 78.1242 28.8281 73.5938C28.8281 69.0633 25.1555 65.3906 20.625 65.3906ZM82.7344 105.234C80.1455 105.234 78.0469 103.136 78.0469 100.547V97.0312C78.0469 92.5008 74.3742 88.8281 69.8438 88.8281H41.7188C37.1883 88.8281 33.5156 92.5008 33.5156 97.0312C33.5156 101.562 37.1883 105.234 41.7188 105.234H45.2344C47.8233 105.234 49.9219 107.333 49.9219 109.922V113.438C49.9219 115.868 50.9796 118.05 52.6587 119.552C55.065 119.846 57.5145 120 60 120C73.6378 120 86.2104 115.447 96.2873 107.782C96.8421 107.053 97.3819 106.312 97.9034 105.558C97.1798 105.349 96.416 105.234 95.625 105.234H82.7344ZM48.75 72.4219H76.875C81.4055 72.4219 85.0781 68.7492 85.0781 64.2188C85.0781 59.6885 81.4057 56.0159 76.8755 56.0156H79.2188C77.2772 56.0156 75.7031 54.4416 75.7031 52.5C75.7031 50.5584 77.2772 48.9844 79.2188 48.9844H104.15C101.715 42.9689 98.333 37.4388 94.1883 32.5781H58.125C53.5945 32.5781 49.9219 36.2508 49.9219 40.7812C49.9219 45.3117 53.5945 48.9844 58.125 48.9844H65.1562C67.0978 48.9844 68.6719 50.5584 68.6719 52.5C68.6719 54.4416 67.098 56.0156 65.1565 56.0156H48.75C44.2195 56.0156 40.5469 59.6883 40.5469 64.2188C40.5469 68.7492 44.2195 72.4219 48.75 72.4219ZM22.9688 32.5781H34.6875C36.6291 32.5781 38.2031 31.0041 38.2031 29.0625C38.2031 27.1209 36.6291 25.5469 34.6875 25.5469H22.9688C21.0272 25.5469 19.4531 27.1209 19.4531 29.0625C19.4531 31.0041 21.0272 32.5781 22.9688 32.5781Z" fill="#9BD04C"/>
<path d="M13.5806 88.6191C16.117 93.2838 19.2539 97.5748 22.8879 101.388C22.0903 102.657 20.955 103.692 19.6078 104.367C7.56094 93.3933 0 77.5798 0 60C0 56.2366 0.349922 52.5555 1.01273 48.9844H4.21875C5.28492 48.9844 6.30234 49.1899 7.2368 49.56C6.64148 52.9507 6.32812 56.4384 6.32812 60C6.32812 68.621 8.14992 76.8152 11.4237 84.2243C11.3121 84.5672 11.25 84.9323 11.25 85.3125C11.25 86.8376 12.2231 88.1323 13.5806 88.6191ZM51.398 118.127C51.7629 118.649 52.185 119.129 52.6587 119.552C55.065 119.846 57.5145 120 60 120C61.0547 120 62.1019 119.97 63.1432 119.916C59.1098 119.705 55.182 119.096 51.398 118.127Z" fill="#80BE1C"/>
<path d="M56.25 37.5C56.25 40.0889 54.1514 42.1875 51.5625 42.1875C48.9736 42.1875 46.875 40.0889 46.875 37.5C46.875 34.9111 48.9736 32.8125 51.5625 32.8125C54.1514 32.8125 56.25 34.9111 56.25 37.5ZM25.7812 32.8125C25.7812 30.2236 23.6827 28.125 21.0938 28.125C18.5048 28.125 16.4062 30.2236 16.4062 32.8125C16.4062 35.4014 18.5048 37.5 21.0938 37.5C23.6827 37.5 25.7812 35.4014 25.7812 32.8125ZM23.4375 60.9375C20.8486 60.9375 18.75 63.0361 18.75 65.625C18.75 68.2139 20.8486 70.3125 23.4375 70.3125C26.0264 70.3125 28.125 68.2139 28.125 65.625C28.125 63.0361 26.0264 60.9375 23.4375 60.9375ZM82.0312 53.9062C79.4423 53.9062 77.3438 56.0048 77.3438 58.5938C77.3438 61.1827 79.4423 63.2812 82.0312 63.2812C84.6202 63.2812 86.7188 61.1827 86.7188 58.5938C86.7188 56.0048 84.6202 53.9062 82.0312 53.9062ZM51.5625 70.3125C51.5625 67.7236 49.4639 65.625 46.875 65.625C44.2861 65.625 42.1875 67.7236 42.1875 70.3125C42.1875 72.9014 44.2861 75 46.875 75C49.4639 75 51.5625 72.9014 51.5625 70.3125ZM51.5625 103.125C48.9736 103.125 46.875 105.224 46.875 107.812C46.875 110.401 48.9736 112.5 51.5625 112.5C54.1514 112.5 56.25 110.401 56.25 107.812C56.25 105.224 54.1514 103.125 51.5625 103.125Z" fill="#FFF587"/>
<path d="M11.1872 94.8916C11.2057 94.9174 11.2249 94.9427 11.2434 94.9685C11.243 94.969 11.2427 94.9697 11.2423 94.9702C11.2238 94.9441 11.2059 94.9174 11.1872 94.8916ZM107.309 23.0951C108.144 19.1386 107.619 16.1911 105.714 14.2863C103.896 12.4692 101.13 11.9074 97.4435 12.5855C97.2663 12.618 96.4948 12.776 96.2881 12.8257C92.0077 13.8553 86.6002 16.4072 80.1012 20.4656C81.5604 21.371 82.9793 22.3352 84.3516 23.3588C92.5763 18.4338 97.5642 16.9859 100.219 16.9859C100.876 16.9859 101.386 17.0761 101.772 17.2221C101.824 17.2418 102.061 17.3522 102.068 17.3562C102.2 17.43 102.31 17.5123 102.399 17.6011C102.519 17.7213 102.628 17.8807 102.719 18.0806C102.745 18.1399 102.769 18.2016 102.793 18.2677C102.794 18.2679 102.794 18.2681 102.794 18.2684C103.557 20.3869 102.625 26.235 95.2303 37.9427C87.8077 49.6952 76.2281 63.6593 62.6243 77.2631C49.68 90.2074 36.4109 101.316 25.0299 108.758C26.4087 109.748 27.8313 110.681 29.2943 111.554C40.5478 103.968 53.4115 93.1055 65.9391 80.5777C79.7813 66.7355 91.5912 52.4831 99.1936 40.4459C103.53 33.5805 106.206 27.9169 107.225 23.4811C107.225 23.4818 107.226 23.4827 107.227 23.4834C107.236 23.4438 107.295 23.1874 107.313 23.1002C107.311 23.0986 107.31 23.0967 107.309 23.0951Z" fill="#235967"/>
</g>
<defs>
<clipPath id="clip0">
<rect width="120" height="120" fill="white"/>
</clipPath>
</defs>
</svg>
