<svg width="120" height="120" viewBox="0 0 120 120" fill="none" xmlns="http://www.w3.org/2000/svg">
<g clip-path="url(#clip0)">
<path d="M120 59.9998C120 93.1221 92.9513 120.092 59.8292 120C37.0969 119.936 17.3386 107.231 7.21243 88.5443C15.3115 86.5915 21.3305 79.3029 21.3305 70.6043V21.4069C21.1383 21.1784 20.9445 20.9513 20.7488 20.7258C19.0812 18.8027 19.5047 16.4712 21.4451 14.824C22.4756 13.9491 23.2868 12.522 24.3757 11.7173C34.3385 4.35398 46.6606 0 60 0C93.1371 0 120 26.8629 120 59.9998Z" fill="#2B6C7E"/>
<path d="M69.375 119.269C66.3202 119.749 63.1896 120 60 120C53.4516 120 47.1497 118.947 41.25 117.008V100.781H69.375V119.269Z" fill="#9FACBA"/>
<path d="M46.875 110.156V118.557C44.9641 118.13 43.0875 117.612 41.25 117.008V100.781H69.375V107.813H49.2188C47.9243 107.813 46.875 108.862 46.875 110.156Z" fill="#8D9CA8"/>
<path d="M110.625 14.0625V27.7847V75V92.2153C108.086 96.1966 105.089 99.8566 101.711 103.125H18.289C13.8206 98.8022 10.0249 93.7894 7.06638 88.2616C15.3084 85.8504 21.3304 78.24 21.3304 69.2187V21.4069C20.4187 20.3227 19.4686 19.2722 18.4835 18.2557C18.0473 17.8057 18.0663 17.0876 18.5189 16.6542C20.3632 14.8889 22.3193 13.2394 24.3768 11.7188H54.375H95.6231H108.281C109.576 11.7188 110.625 12.768 110.625 14.0625Z" fill="#B6C4CF"/>
<path d="M105.938 21.4069V87.8906C105.938 88.5377 105.413 89.0625 104.766 89.0625H7.50047C2.72367 80.4518 0 70.5448 0 60C0 42.8283 7.21523 27.3434 18.7772 16.4062H101.223C102.888 17.9812 104.461 19.6516 105.938 21.4069Z" fill="#FFF5F5"/>
<path d="M105.937 21.4069V87.8906C105.937 88.5377 105.413 89.0625 104.766 89.0625H98.6718C99.3189 89.0625 99.8437 88.5377 99.8437 87.8906V21.4069C98.3676 19.6516 96.794 17.9812 95.129 16.4062H101.223C102.888 17.9812 104.461 19.6516 105.937 21.4069Z" fill="#FFE7BF"/>
<path d="M49.4531 96.0938C49.4531 94.7993 50.5024 93.75 51.7969 93.75H58.8281C60.1226 93.75 61.1719 94.7993 61.1719 96.0938C61.1719 97.3882 60.1226 98.4375 58.8281 98.4375H51.7969C50.5024 98.4375 49.4531 97.3882 49.4531 96.0938Z" fill="#9FACBA"/>
<path d="M86.7188 82.0312C86.7188 83.3257 85.6695 84.375 84.375 84.375C83.0805 84.375 82.0312 83.3257 82.0312 82.0312C82.0312 80.7368 83.0805 79.6875 84.375 79.6875C85.6695 79.6875 86.7188 80.7368 86.7188 82.0312ZM91.4062 79.6875C90.1118 79.6875 89.0625 80.7368 89.0625 82.0312C89.0625 83.3257 90.1118 84.375 91.4062 84.375C92.7007 84.375 93.75 83.3257 93.75 82.0312C93.75 80.7368 92.7007 79.6875 91.4062 79.6875ZM98.4375 79.6875C97.143 79.6875 96.0938 80.7368 96.0938 82.0312C96.0938 83.3257 97.143 84.375 98.4375 84.375C99.732 84.375 100.781 83.3257 100.781 82.0312C100.781 80.7368 99.732 79.6875 98.4375 79.6875Z" fill="#FBC56D"/>
<path d="M72.6562 22.6003V82.8682C72.6562 83.7005 72.064 84.375 71.3332 84.375H5.16141C1.8457 76.9266 0 68.6791 0 60C0 45.1538 5.39484 31.5696 14.3273 21.0938H71.3332C72.064 21.0938 72.6562 21.7683 72.6562 22.6003Z" fill="#F89696"/>
<path d="M46.875 52.7344C46.875 61.7953 39.5297 69.1406 30.4688 69.1406C21.4078 69.1406 14.0625 61.7953 14.0625 52.7344C14.0625 43.6734 21.4078 36.3281 30.4688 36.3281C39.5297 36.3281 46.875 43.6734 46.875 52.7344Z" fill="#EA4444"/>
<path d="M38.1391 53.7009L26.4677 61.7044C25.6901 62.2376 24.633 61.6809 24.633 60.7378V44.7307C24.633 43.7878 25.6901 43.2309 26.4677 43.7641L38.1391 51.7676C38.8179 52.2335 38.8179 53.2352 38.1391 53.7009Z" fill="#FFF5F5"/>
<path d="M120 16.4063V23.4375C120 27.3209 116.852 30.4688 112.969 30.4688H107.767C106.778 34.323 104.424 37.6294 101.25 39.8438C98.0763 37.6294 95.7218 34.323 94.7327 30.4688H67.9688C64.0854 30.4688 60.9375 27.3209 60.9375 23.4375V16.4063C60.9375 12.5229 64.0854 9.375 67.9688 9.375H112.969C116.852 9.375 120 12.5229 120 16.4063Z" fill="#FFC143"/>
<path d="M73.125 30.4688H67.9688C64.0854 30.4688 60.9375 27.3209 60.9375 23.4375V16.4062C60.9375 12.5229 64.0854 9.375 67.9688 9.375H73.125C69.2416 9.375 66.0938 12.5229 66.0938 16.4062V23.4375C66.0938 27.3209 69.2416 30.4688 73.125 30.4688Z" fill="#FFB509"/>
<path d="M101.25 15.1172V17.6953C101.25 17.9541 101.04 18.1641 100.781 18.1641H68.4375C68.1788 18.1641 67.9688 17.9541 67.9688 17.6953V15.1172C67.9688 14.8584 68.1788 14.6484 68.4375 14.6484H100.781C101.04 14.6484 101.25 14.8584 101.25 15.1172ZM89.0625 21.6797H68.4375C68.1788 21.6797 67.9688 21.8897 67.9688 22.1484V24.7266C67.9688 24.9853 68.1788 25.1953 68.4375 25.1953H89.0625C89.3213 25.1953 89.5312 24.9853 89.5312 24.7266V22.1484C89.5312 21.8897 89.3213 21.6797 89.0625 21.6797Z" fill="#FF9500"/>
<path d="M120 51.5625V58.5937C120 62.4771 116.852 65.625 112.969 65.625H90.4235C89.4345 69.4793 87.0799 72.7856 83.9062 75C80.7326 72.7856 78.378 69.4793 77.389 65.625H72.1875C68.3041 65.625 65.1562 62.4771 65.1562 58.5937V51.5625C65.1562 47.6791 68.3041 44.5312 72.1875 44.5312H112.969C116.852 44.5312 120 47.6791 120 51.5625Z" fill="#5EE2C5"/>
<path d="M77.3438 65.625H72.1875C68.3041 65.625 65.1562 62.4771 65.1562 58.5937V51.5625C65.1562 47.6791 68.3041 44.5312 72.1875 44.5312H77.3438C73.4604 44.5312 70.3125 47.6791 70.3125 51.5625V58.5937C70.3125 62.4771 73.4604 65.625 77.3438 65.625Z" fill="#00D3B4"/>
<path d="M101.25 50.2734V52.8516C101.25 53.1103 101.04 53.3203 100.781 53.3203H72.6562C72.3975 53.3203 72.1875 53.1103 72.1875 52.8516V50.2734C72.1875 50.0147 72.3975 49.8047 72.6562 49.8047H100.781C101.04 49.8047 101.25 50.0147 101.25 50.2734ZM89.0625 56.8359H72.6562C72.3975 56.8359 72.1875 57.0459 72.1875 57.3047V59.8828C72.1875 60.1416 72.3975 60.3516 72.6562 60.3516H89.0625C89.3213 60.3516 89.5312 60.1416 89.5312 59.8828V57.3047C89.5312 57.0459 89.3213 56.8359 89.0625 56.8359Z" fill="#009A8E"/>
</g>
<defs>
<clipPath id="clip0">
<rect width="120" height="120" fill="white"/>
</clipPath>
</defs>
</svg>
