<svg width="120" height="120" viewBox="0 0 120 120" fill="none" xmlns="http://www.w3.org/2000/svg">
<path d="M99.1613 105.457C88.6514 114.519 74.966 120 60 120C45.0973 120 31.4655 114.565 20.9735 105.571C20.974 105.53 20.9766 105.49 20.9766 105.449C20.9766 100.223 16.8914 95.9529 11.7405 95.6531C4.36406 85.6849 0 73.3528 0 60C0 26.8629 26.8629 0 60 0C93.1371 0 120 26.8629 120 60C120 73.3807 115.618 85.7367 108.214 95.7159C103.163 96.1036 99.1824 100.312 99.1613 105.457Z" fill="#6BC5DC"/>
<path d="M108.281 95.6231C105.539 99.334 102.379 102.716 98.8702 105.703H21.1298C17.6215 102.716 14.4612 99.334 11.7188 95.6231V24.3769C11.8936 24.1404 12.0708 23.9058 12.2489 23.6719H107.751C107.929 23.9058 108.106 24.1404 108.281 24.3769V95.6231Z" fill="#FFF5F5"/>
<path d="M107.751 23.6719C107.929 23.9058 108.106 24.1404 108.281 24.3769V95.6231C106.888 97.5084 105.386 99.3084 103.787 101.016H16.2134C14.6135 99.3084 13.1121 97.5084 11.7188 95.6231V24.3769C11.8936 24.1404 12.0708 23.9058 12.2489 23.6719H107.751Z" fill="#FFE7BF"/>
<path d="M108.281 24.3769V95.6231C108.106 95.8596 107.929 96.0942 107.751 96.3281H16.875C16.616 96.3281 16.4062 96.1184 16.4062 95.8594V23.6719H107.751C107.929 23.9058 108.106 24.1404 108.281 24.3769Z" fill="#FFF5F5"/>
<path d="M54.7334 46.3373V53.6718C54.7334 53.9308 54.5236 54.1406 54.2646 54.1406H42.6562C42.3973 54.1406 42.1875 53.9308 42.1875 53.6718V46.3373C42.1875 46.0783 42.3973 45.8685 42.6562 45.8685H54.2646C54.5236 45.8685 54.7334 46.0783 54.7334 46.3373ZM102.656 57.5873H91.0479C90.7889 57.5873 90.5791 57.797 90.5791 58.056V65.3906C90.5791 65.6495 90.7889 65.8593 91.0479 65.8593H102.656C102.915 65.8593 103.125 65.6495 103.125 65.3906V58.056C103.125 57.797 102.915 57.5873 102.656 57.5873ZM70.3952 69.306H58.7869C58.5279 69.306 58.3181 69.5158 58.3181 69.7748V77.1093C58.3181 77.3683 58.5279 77.5781 58.7869 77.5781H70.3952C70.6542 77.5781 70.864 77.3683 70.864 77.1093V69.7748C70.864 69.5158 70.6542 69.306 70.3952 69.306ZM86.5256 81.0248H74.9173C74.6583 81.0248 74.4485 81.2345 74.4485 81.4935V88.8281C74.4485 89.087 74.6583 89.2968 74.9173 89.2968H86.5256C86.7846 89.2968 86.9944 89.087 86.9944 88.8281V81.4935C86.9944 81.2345 86.7846 81.0248 86.5256 81.0248Z" fill="#B2DA7B"/>
<path d="M70.864 58.0561V65.3906C70.864 65.6496 70.6542 65.8594 70.3952 65.8594H58.7869C58.5279 65.8594 58.3181 65.6496 58.3181 65.3906V58.0561C58.3181 57.7971 58.5279 57.5873 58.7869 57.5873H70.3952C70.6542 57.5873 70.864 57.7971 70.864 58.0561ZM54.2646 69.3061H42.6562C42.3973 69.3061 42.1875 69.5159 42.1875 69.7748V77.1094C42.1875 77.3684 42.3973 77.5781 42.6562 77.5781H54.2646C54.5236 77.5781 54.7334 77.3684 54.7334 77.1094V69.7748C54.7334 69.5159 54.5236 69.3061 54.2646 69.3061ZM70.3952 81.0248H58.7869C58.5279 81.0248 58.3181 81.2346 58.3181 81.4936V88.8281C58.3181 89.0871 58.5279 89.2969 58.7869 89.2969H70.3952C70.6542 89.2969 70.864 89.0871 70.864 88.8281V81.4936C70.864 81.2346 70.6542 81.0248 70.3952 81.0248ZM54.2646 57.5873H42.6562C42.3973 57.5873 42.1875 57.7971 42.1875 58.0561V65.3906C42.1875 65.6496 42.3973 65.8594 42.6562 65.8594H54.2646C54.5236 65.8594 54.7334 65.6496 54.7334 65.3906V58.0561C54.7334 57.7971 54.5236 57.5873 54.2646 57.5873ZM54.2646 81.0248H42.6562C42.3973 81.0248 42.1875 81.2346 42.1875 81.4936V88.8281C42.1875 89.0871 42.3973 89.2969 42.6562 89.2969H54.2646C54.5236 89.2969 54.7334 89.0871 54.7334 88.8281V81.4936C54.7334 81.2346 54.5236 81.0248 54.2646 81.0248ZM37.0312 39.8438H21.5625C21.3035 39.8438 21.0938 40.0535 21.0938 40.3125V44.0625C21.0938 44.3215 21.3035 44.5312 21.5625 44.5312H37.0312C37.2902 44.5312 37.5 44.3215 37.5 44.0625V40.3125C37.5 40.0535 37.2902 39.8438 37.0312 39.8438ZM21.5625 37.5H46.4062C46.6652 37.5 46.875 37.2902 46.875 37.0312V33.2812C46.875 33.0223 46.6652 32.8125 46.4062 32.8125H21.5625C21.3035 32.8125 21.0938 33.0223 21.0938 33.2812V37.0312C21.0938 37.2902 21.3035 37.5 21.5625 37.5ZM102.656 69.3061H91.0479C90.7889 69.3061 90.5791 69.5159 90.5791 69.7748V77.1094C90.5791 77.3684 90.7889 77.5781 91.0479 77.5781H102.656C102.915 77.5781 103.125 77.3684 103.125 77.1094V69.7748C103.125 69.5159 102.915 69.3061 102.656 69.3061ZM102.656 45.8686H91.0479C90.7889 45.8686 90.5791 46.0784 90.5791 46.3373V53.6719C90.5791 53.9309 90.7889 54.1406 91.0479 54.1406H102.656C102.915 54.1406 103.125 53.9309 103.125 53.6719V46.3373C103.125 46.0784 102.915 45.8686 102.656 45.8686ZM102.656 81.0248H91.0479C90.7889 81.0248 90.5791 81.2346 90.5791 81.4936V88.8281C90.5791 89.0871 90.7889 89.2969 91.0479 89.2969H102.656C102.915 89.2969 103.125 89.0871 103.125 88.8281V81.4936C103.125 81.2346 102.915 81.0248 102.656 81.0248ZM86.5256 69.3061H74.9173C74.6583 69.3061 74.4485 69.5159 74.4485 69.7748V77.1094C74.4485 77.3684 74.6583 77.5781 74.9173 77.5781H86.5256C86.7846 77.5781 86.9944 77.3684 86.9944 77.1094V69.7748C86.9944 69.5159 86.7846 69.3061 86.5256 69.3061ZM70.3952 45.8686H58.7869C58.5279 45.8686 58.3181 46.0784 58.3181 46.3373V53.6719C58.3181 53.9309 58.5279 54.1406 58.7869 54.1406H70.3952C70.6542 54.1406 70.864 53.9309 70.864 53.6719V46.3373C70.864 46.0784 70.6542 45.8686 70.3952 45.8686ZM86.5256 45.8686H74.9173C74.6583 45.8686 74.4485 46.0784 74.4485 46.3373V53.6719C74.4485 53.9309 74.6583 54.1406 74.9173 54.1406H86.5256C86.7846 54.1406 86.9944 53.9309 86.9944 53.6719V46.3373C86.9944 46.0784 86.7846 45.8686 86.5256 45.8686ZM86.5256 57.5873H74.9173C74.6583 57.5873 74.4485 57.7971 74.4485 58.0561V65.3906C74.4485 65.6496 74.6583 65.8594 74.9173 65.8594H86.5256C86.7846 65.8594 86.9944 65.6496 86.9944 65.3906V58.0561C86.9944 57.7971 86.7846 57.5873 86.5256 57.5873Z" fill="#FFE1A8"/>
<path d="M108.281 24.3769V26.0156H72.6562H11.7188V24.3769V16.6406C11.7188 15.3462 12.768 14.2969 14.0625 14.2969H21.1298H70.3125H98.8702C102.379 17.2835 105.539 20.666 108.281 24.3769Z" fill="#EA4444"/>
<path d="M16.4062 24.3769V26.0156H11.7188V24.3769V16.6406C11.7188 15.3462 12.768 14.2969 14.0625 14.2969H18.75C17.4555 14.2969 16.4062 15.3462 16.4062 16.6406V24.3769Z" fill="#D93131"/>
<path d="M23.4375 20.1562C23.4375 21.4507 22.3882 22.5 21.0938 22.5C19.7993 22.5 18.75 21.4507 18.75 20.1562C18.75 18.8618 19.7993 17.8125 21.0938 17.8125C22.3882 17.8125 23.4375 18.8618 23.4375 20.1562ZM28.125 17.8125C26.8305 17.8125 25.7812 18.8618 25.7812 20.1562C25.7812 21.4507 26.8305 22.5 28.125 22.5C29.4195 22.5 30.4688 21.4507 30.4688 20.1562C30.4688 18.8618 29.4195 17.8125 28.125 17.8125ZM35.1562 17.8125C33.8618 17.8125 32.8125 18.8618 32.8125 20.1562C32.8125 21.4507 33.8618 22.5 35.1562 22.5C36.4507 22.5 37.5 21.4507 37.5 20.1562C37.5 18.8618 36.4507 17.8125 35.1562 17.8125Z" fill="#A82B2B"/>
</svg>
