<svg width="120" height="120" viewBox="0 0 120 120" fill="none" xmlns="http://www.w3.org/2000/svg">
<path d="M69.4612 46.5483H54.4728V31.5336C54.4728 29.463 52.7962 27.779 50.7256 27.779C48.6551 27.779 46.9786 29.4593 46.9786 31.5336V46.5483H31.9937C29.9232 46.5483 28.2467 47.231 28.2467 49.3053C28.2467 51.3796 29.9234 54.0575 31.9937 54.0575H46.9823V69.0687C46.9823 71.143 48.659 72.8231 50.7293 72.8231C52.7999 72.8231 54.4766 71.143 54.4766 69.0687V54.0575H69.4651C71.5357 54.0575 73.2122 52.3772 73.2122 50.3029C73.2084 48.2288 71.5318 46.5483 69.4612 46.5483ZM118.861 113.471L87.8782 82.9845C95.9912 74.17 100.976 62.5123 100.976 49.6843C100.976 22.2426 78.3735 0 50.4893 0C22.6052 0 0.00244141 22.2426 0.00244141 49.6841C0.00244141 77.1256 22.6052 99.3682 50.4893 99.3682C62.5372 99.3682 73.5872 95.201 82.2669 88.2731L113.369 118.88C114.885 120.373 117.345 120.373 118.861 118.88C120.38 117.387 120.38 114.964 118.861 113.471ZM50.4893 91.724C26.8964 91.724 7.77056 72.9021 7.77056 49.6841C7.77056 26.466 26.8964 7.64419 50.4893 7.64419C74.0825 7.64419 93.2081 26.466 93.2081 49.6841C93.2081 72.9021 74.0825 91.724 50.4893 91.724Z" fill="white"/>
</svg>
